<svg width="44" height="42" viewBox="0 0 44 42" fill="none" xmlns="http://www.w3.org/2000/svg">
<rect y="6" width="44" height="30" rx="2" fill="black"/>
<path d="M34.4866 13.3379H9.51367V28.6622H34.4866V13.3379Z" fill="#CEE8FA"/>
<path d="M41.8649 7.09448H29.946C29.319 7.09448 28.8108 7.60283 28.8108 8.22963C28.8108 8.85643 29.319 9.36478 29.946 9.36478H40.7297V12.2027H34.4865H23.1351V8.22971C23.1351 7.60291 22.627 7.09456 22 7.09456H2.13515C1.50818 7.09448 1 7.60283 1 8.22963V33.7701C1 34.3969 1.50818 34.9053 2.13515 34.9053H41.8649C42.4918 34.9053 43 34.3969 43 33.7701V8.22963C43 7.60283 42.4918 7.09448 41.8649 7.09448ZM40.7297 27.527H35.6216V14.4729H40.7297V27.527ZM33.3513 14.4729V27.5269H23.1351V22.135H27.6757C28.3026 22.135 28.8108 21.6266 28.8108 20.9998C28.8108 20.373 28.3026 19.8647 27.6757 19.8647H23.1351V14.4728H33.3513V14.4729ZM3.2703 27.527V14.4729H8.37838V27.5269H3.2703V27.527ZM10.6487 14.4729H20.8649V19.8648H10.6487V14.4729ZM10.6487 22.1351H20.8649V27.527H10.6487V22.1351ZM20.8649 9.36478V12.2027H9.51353H3.2703V9.36478H20.8649ZM3.2703 29.7972H9.51353H20.8649V32.6351H3.2703V29.7972ZM23.1351 32.6351V29.7972H34.4865H40.7297V32.6351H23.1351Z" fill="#0077FF"/>
</svg>
